<?xml version="1.0" standalone="no"?>
<!DOCTYPE svg PUBLIC "-//W3C//DTD SVG 20010904//EN"
 "http://www.w3.org/TR/2001/REC-SVG-20010904/DTD/svg10.dtd">
<svg version="1.0" xmlns="http://www.w3.org/2000/svg"
 width="1025.000000pt" height="1259.000000pt" viewBox="0 0 1025.000000 1259.000000"
 preserveAspectRatio="xMidYMid meet">

<g transform="translate(0.000000,1259.000000) scale(0.100000,-0.100000)"
fill="#000000" stroke="none">
<path d="M4415 12368 c-67 -7 -144 -34 -220 -76 l-50 -28 -95 19 c-83 17 -107
18 -190 9 -349 -41 -720 -276 -831 -527 -11 -25 -22 -45 -25 -45 -3 0 -22 14
-43 30 -68 55 -130 58 -165 8 -27 -38 -29 -80 -8 -143 l20 -59 -28 -33 c-63
-71 -60 -167 5 -229 l34 -31 -29 -84 c-46 -132 -63 -253 -58 -409 4 -113 8
-144 27 -187 25 -56 55 -89 86 -95 17 -3 21 -14 26 -75 7 -74 27 -119 71 -160
33 -31 118 -71 166 -79 36 -6 46 -13 71 -53 17 -25 36 -53 43 -61 41 -49 107
-64 161 -35 27 14 29 13 65 -27 70 -78 237 -220 332 -282 190 -124 289 -176
472 -247 l88 -34 0 -137 c0 -122 -2 -137 -17 -142 -10 -2 -103 -5 -208 -5
-104 1 -237 -4 -295 -10 -58 -6 -197 -18 -310 -26 -113 -8 -248 -20 -300 -25
-52 -5 -138 -12 -190 -15 -116 -7 -228 -21 -338 -42 -79 -15 -84 -18 -101 -52
-10 -20 -22 -55 -26 -78 -6 -40 -9 -43 -60 -62 -86 -32 -273 -129 -350 -181
-78 -53 -210 -186 -255 -257 -35 -55 -41 -133 -13 -186 25 -50 121 -176 182
-241 99 -104 302 -250 586 -421 72 -43 244 -153 384 -244 l253 -165 -63 -17
c-62 -17 -64 -17 -91 3 -41 29 -137 28 -206 -2 -61 -26 -122 -89 -122 -125 0
-18 -7 -26 -25 -31 -26 -6 -95 -76 -95 -96 0 -7 -12 -24 -27 -40 -21 -22 -27
-38 -27 -78 -1 -30 -5 -50 -12 -50 -22 0 -44 -49 -44 -96 0 -59 30 -124 73
-157 81 -61 201 -105 310 -114 42 -3 77 -10 77 -14 0 -4 -21 -63 -46 -131 -67
-179 -104 -289 -104 -311 0 -10 14 -36 30 -57 l31 -39 -106 -284 c-58 -156
-105 -291 -105 -299 0 -17 59 -82 110 -119 l34 -26 -43 -164 c-24 -90 -57
-204 -73 -254 -16 -49 -76 -272 -134 -495 -58 -223 -113 -432 -124 -465 -11
-33 -57 -195 -104 -360 -47 -165 -106 -367 -132 -450 -89 -286 -116 -381 -164
-586 -67 -285 -69 -292 -84 -286 -24 10 -54 -22 -72 -75 -25 -75 -81 -166
-112 -182 -35 -18 -115 -103 -137 -146 -10 -19 -14 -42 -11 -56 5 -18 2 -24
-11 -24 -26 -1 -51 -23 -58 -52 -9 -36 -34 -56 -75 -60 -30 -3 -35 -7 -38 -30
-4 -32 -45 -68 -78 -68 -14 0 -30 -10 -40 -24 -10 -16 -27 -26 -47 -28 -22 -2
-35 -11 -44 -28 -18 -36 -51 -60 -84 -60 -18 0 -32 -7 -39 -21 -9 -16 -14 -18
-26 -8 -19 15 -64 -3 -64 -26 0 -20 -65 -49 -102 -46 -18 1 -28 -4 -28 -12 0
-18 -42 -37 -67 -31 -10 3 -27 -3 -38 -13 -29 -27 -143 -71 -195 -76 -80 -7
-169 -66 -186 -121 -4 -12 -15 -26 -24 -33 -20 -14 -40 -84 -40 -137 0 -29 9
-43 59 -91 85 -81 126 -109 221 -148 132 -54 230 -72 405 -71 173 1 251 15
382 69 179 75 291 100 523 120 41 3 109 13 150 21 103 22 344 102 373 124 15
12 33 46 47 91 25 80 25 76 10 209 -20 177 2 395 65 659 40 163 40 169 21 206
-8 15 -13 33 -11 39 3 6 54 175 115 376 61 201 133 433 160 515 27 83 94 299
149 480 55 182 118 384 140 450 21 66 94 298 160 515 66 217 134 435 150 483
17 48 38 114 47 147 17 60 17 60 54 60 93 0 213 45 224 83 2 7 27 82 54 167
28 85 62 211 77 280 14 69 35 155 46 193 24 77 14 74 159 53 72 -10 85 -14 88
-31 1 -11 14 -65 27 -120 103 -424 128 -523 140 -541 17 -26 103 -54 169 -54
48 0 53 -2 69 -32 9 -18 41 -114 71 -213 30 -99 86 -272 124 -385 69 -202 110
-328 312 -965 55 -176 123 -382 151 -457 27 -76 49 -144 49 -153 0 -9 32 -100
71 -203 39 -103 104 -275 144 -382 40 -107 85 -222 98 -254 23 -54 24 -62 11
-87 -20 -39 -18 -71 12 -195 54 -229 66 -327 66 -534 0 -153 -3 -201 -15 -223
-13 -25 -13 -36 -1 -88 15 -64 35 -109 56 -126 20 -17 170 -72 280 -104 55
-16 195 -43 312 -60 237 -34 294 -48 380 -91 153 -77 295 -109 494 -109 129 0
266 24 348 61 27 12 58 23 69 26 28 5 111 65 172 124 48 45 53 54 53 92 0 53
-17 120 -34 133 -7 6 -21 27 -31 48 -29 62 -121 117 -195 117 -32 0 -128 40
-170 71 -15 12 -33 19 -38 15 -15 -9 -62 15 -62 31 0 8 -12 13 -30 13 -40 0
-94 27 -106 53 -7 17 -17 22 -46 21 -28 -1 -38 3 -41 17 -4 14 -14 19 -39 19
-35 0 -64 22 -87 68 -8 15 -21 22 -40 22 -18 0 -34 8 -43 22 -8 12 -32 27 -54
33 -37 10 -43 17 -74 85 -4 8 -20 17 -36 18 -36 4 -60 25 -69 60 -7 29 -32 51
-57 52 -14 0 -16 6 -11 30 4 23 -1 40 -21 71 -41 62 -93 115 -125 128 -30 13
-77 101 -100 189 -12 42 -50 80 -70 68 -5 -3 -18 22 -30 56 -49 151 -164 527
-210 688 -27 96 -73 247 -101 335 -81 257 -140 471 -170 610 -24 114 -85 330
-279 990 -27 94 -66 216 -85 272 -20 56 -36 104 -36 106 0 2 20 17 45 33 25
16 48 39 51 51 4 14 -13 82 -41 171 -26 81 -57 184 -70 229 l-22 82 59 31 c38
21 63 41 70 58 7 18 8 152 4 417 -4 215 -6 736 -6 1159 1 628 3 774 14 795 18
33 52 64 93 85 33 16 165 51 238 61 22 4 56 11 75 16 19 5 91 14 160 20 127
10 222 29 271 54 31 16 68 76 95 151 l18 52 120 6 c67 4 164 9 216 12 124 6
387 29 625 54 105 11 258 20 340 20 83 0 205 5 273 10 68 5 191 11 273 12
l150 2 52 -51 c103 -99 238 -182 367 -226 69 -23 95 -26 310 -32 235 -7 236
-7 308 18 93 32 120 51 137 91 10 24 30 41 74 65 63 33 111 81 111 110 0 9 14
25 30 35 75 44 77 110 6 180 -28 27 -45 53 -50 77 -10 56 -104 135 -202 171
-52 19 -88 23 -294 28 -215 6 -239 8 -287 29 -41 18 -53 29 -53 45 0 26 35 47
156 95 98 39 131 70 143 136 24 129 -66 275 -170 275 -29 0 -47 -10 -92 -50
-32 -27 -79 -75 -106 -107 -85 -101 -153 -159 -271 -233 -63 -39 -133 -89
-154 -112 -39 -39 -41 -40 -90 -34 -28 4 -202 9 -386 12 -319 6 -615 -2 -990
-26 -346 -22 -477 -31 -547 -37 l-72 -6 -15 38 c-9 20 -32 60 -53 87 -36 50
-37 50 -82 45 -25 -3 -116 -19 -201 -35 -85 -17 -180 -33 -210 -36 -30 -4
-108 -15 -173 -26 -312 -54 -649 -75 -764 -48 l-53 13 0 125 c0 130 6 154 38
156 11 1 31 4 45 8 24 6 25 5 20 -34 -7 -54 12 -52 23 2 6 29 15 44 27 46 15
3 17 -1 11 -25 -10 -43 -10 -45 4 -50 6 -3 12 1 12 9 0 7 5 30 11 51 8 29 19
42 50 58 23 11 43 19 45 17 2 -2 -6 -32 -16 -67 -22 -68 -25 -101 -11 -101 5
0 17 30 27 68 20 77 40 122 54 122 13 0 12 -18 -4 -65 -14 -39 -12 -60 4 -50
4 2 16 34 25 70 20 71 32 87 47 61 12 -22 28 -11 28 19 0 21 16 43 25 33 2 -1
-3 -28 -11 -58 -16 -63 -17 -80 -5 -80 5 0 19 38 32 85 18 71 28 90 52 107 28
20 30 21 23 3 -16 -44 -47 -177 -42 -182 11 -12 19 6 48 114 16 59 36 115 44
123 12 12 14 4 14 -68 0 -53 4 -81 10 -77 6 3 10 46 10 94 0 86 0 87 35 121
l35 34 0 -77 c0 -42 4 -77 8 -77 5 0 12 44 15 97 8 112 27 152 27 55 0 -35 4
-62 10 -62 6 0 10 32 10 76 0 64 4 81 25 112 l25 37 0 -83 c0 -48 4 -82 10
-82 6 0 10 42 10 105 0 78 4 114 16 137 41 79 66 175 72 280 4 58 4 125 0 149
-17 97 -105 237 -215 340 l-48 45 -1 145 c-2 202 -15 282 -68 398 l-43 96 56
7 c63 9 97 30 126 79 17 28 20 51 19 129 -2 155 -49 256 -174 374 -107 100
-237 151 -445 171 -52 5 -82 14 -115 35 -147 94 -340 145 -485 128z m519 -729
c65 -28 166 -35 241 -15 l60 15 33 -32 c65 -62 145 -180 189 -277 41 -93 45
-108 58 -245 7 -80 11 -177 8 -215 l-6 -69 55 -53 c154 -148 218 -273 218
-422 0 -122 -49 -307 -75 -286 -16 14 -25 -7 -18 -42 3 -17 -3 -42 -18 -68
-21 -37 -24 -39 -31 -20 -13 35 -28 22 -29 -27 0 -27 -3 -42 -6 -35 -9 22 -21
12 -29 -25 -8 -35 -9 -31 -14 40 -3 42 -9 77 -15 77 -6 0 -11 -39 -13 -91 -2
-60 -8 -99 -17 -113 -14 -19 -15 -19 -15 17 0 23 -4 36 -10 32 -5 -3 -10 -27
-10 -53 0 -31 -3 -42 -9 -33 -11 17 -31 6 -31 -19 0 -18 -53 -70 -72 -70 -5 0
-18 -10 -29 -22 -25 -32 -24 -12 6 97 27 98 32 136 15 119 -11 -11 -69 -207
-70 -235 0 -9 -8 -23 -17 -30 -15 -13 -16 -11 -10 11 14 53 19 100 10 100 -5
0 -19 -34 -31 -75 -18 -61 -26 -75 -42 -75 -12 0 -32 -7 -45 -16 -30 -20 -31
-14 -5 56 22 60 25 80 11 80 -5 0 -22 -37 -37 -82 -16 -45 -34 -83 -41 -85 -9
-3 -10 4 -2 29 11 41 12 68 0 68 -5 0 -15 -24 -21 -52 -7 -29 -17 -59 -22 -65
-17 -22 -27 -4 -16 28 6 16 7 33 4 37 -9 8 -24 -15 -32 -48 -10 -39 -24 -51
-58 -48 -18 1 -37 -2 -44 -6 -16 -9 -15 6 3 74 9 34 11 58 5 64 -11 11 -15 2
-33 -79 -11 -49 -18 -61 -35 -63 -20 -3 -21 -1 -12 24 7 18 7 31 1 37 -7 7
-12 4 -16 -9 -18 -54 -25 -64 -50 -64 -29 0 -31 11 -10 70 8 23 15 51 15 61 0
35 -19 20 -30 -23 -21 -84 -30 -98 -61 -98 -33 0 -33 0 -17 35 8 18 8 29 1 36
-8 8 -14 0 -23 -25 -9 -29 -17 -36 -37 -36 -22 0 -24 3 -18 23 3 12 9 33 12
47 l5 25 -21 -25 c-11 -14 -21 -30 -21 -37 0 -23 -18 -22 -141 12 -133 35
-222 67 -322 114 -69 32 -307 174 -371 222 -63 46 -245 210 -271 245 l-24 32
29 53 c16 30 30 66 30 82 0 23 -7 30 -40 43 -75 30 -142 135 -126 198 4 15 19
32 39 42 17 9 49 33 70 53 l38 36 -20 -45 c-30 -67 -29 -160 4 -216 34 -59 97
-94 177 -101 39 -4 72 -13 87 -24 75 -59 190 23 137 97 -9 11 -12 30 -9 47 8
41 -10 33 -32 -15 -14 -29 -32 -48 -58 -61 -47 -24 -56 -16 -32 28 10 20 15
38 11 43 -11 11 -46 -37 -46 -63 0 -28 -22 -37 -69 -29 -75 14 -160 78 -162
122 0 9 -3 30 -5 46 -7 44 14 121 46 164 28 40 81 62 144 62 14 0 26 5 26 10
0 6 -11 10 -25 10 -16 0 -25 6 -25 15 0 8 7 15 15 15 8 0 15 5 15 10 0 17 -27
11 -36 -7 -4 -10 -7 -21 -6 -24 2 -11 -46 -20 -73 -13 -19 5 -24 3 -20 -8 3
-8 -3 -22 -13 -32 -19 -16 -19 -16 -9 24 6 22 17 40 24 40 7 0 13 5 13 10 0 6
-5 10 -10 10 -13 0 -1 82 14 93 8 5 8 9 -1 15 -6 4 -15 30 -21 59 l-9 52 56
12 c84 17 196 63 267 110 59 38 154 130 154 149 0 4 21 15 48 25 26 10 60 26
75 36 50 30 136 119 165 171 24 43 30 48 52 43 14 -4 77 -9 141 -12 113 -5
117 -4 193 27 97 40 164 93 196 154 14 25 28 46 31 46 4 0 27 -9 53 -21z
m-1094 -1409 c0 -19 -7 -33 -19 -40 -27 -14 -66 -13 -79 3 -8 10 0 18 34 36
24 13 44 28 44 33 0 5 5 6 10 3 6 -3 10 -19 10 -35z m5355 -636 c13 -9 38 -43
55 -77 34 -68 39 -127 15 -183 -15 -36 -7 -32 -212 -124 -100 -46 -107 -101
-17 -141 55 -25 233 -40 362 -32 48 3 114 0 147 -6 123 -23 265 -117 265 -176
0 -24 -3 -26 -27 -21 -35 8 -198 24 -360 35 -67 5 -126 12 -132 15 -5 3 -12
26 -15 51 -5 31 -12 45 -23 45 -10 0 -13 -5 -8 -17 20 -52 29 -196 17 -280
-19 -128 -28 -156 -72 -214 -21 -29 -37 -56 -33 -61 5 -10 51 38 79 83 l17 26
116 -4 c228 -8 304 -40 275 -118 -8 -21 -89 -61 -161 -80 -47 -13 -95 -15
-258 -10 -114 4 -226 13 -260 21 -123 29 -345 161 -433 258 l-32 36 -103 0
c-56 0 -163 -5 -237 -10 -74 -5 -229 -12 -345 -14 -115 -3 -295 -14 -400 -25
-375 -40 -554 -52 -832 -57 -268 -5 -283 -5 -290 13 -8 19 -8 471 0 479 8 8
420 44 522 45 17 0 127 7 245 14 118 8 264 17 323 21 149 8 783 8 940 -1 112
-7 127 -9 122 -24 -27 -70 -26 -179 2 -188 9 -3 11 9 6 45 -3 27 0 73 7 101
16 66 72 121 215 212 142 89 170 113 271 230 135 157 178 180 249 133z m-4742
-184 c39 -11 73 -25 75 -30 2 -6 20 -7 43 -4 32 5 39 4 39 -10 0 -18 11 -21
26 -7 5 5 42 7 82 4 57 -5 72 -9 70 -21 -4 -23 19 -26 25 -2 3 11 12 20 21 20
14 0 15 -20 10 -187 -3 -122 -9 -190 -17 -195 -6 -3 -47 -12 -92 -19 -62 -9
-97 -9 -145 -1 -66 12 -217 77 -222 96 -5 18 2 376 8 376 2 0 37 -9 77 -20z
m1816 -251 c-16 -54 -29 -421 -18 -534 10 -113 37 -217 74 -288 l24 -48 -22
-8 c-38 -15 -129 -30 -222 -36 -49 -4 -166 -22 -259 -40 -197 -39 -264 -67
-310 -132 l-30 -43 -3 -712 c-1 -392 2 -908 8 -1146 6 -238 9 -435 6 -438 -3
-3 -29 7 -58 22 -29 14 -82 37 -118 51 -101 38 -139 46 -536 108 -141 22 -366
43 -675 62 -373 23 -1091 24 -1157 0 -30 -10 -43 -11 -43 -3 0 19 122 340 134
352 6 6 40 21 76 34 104 36 190 83 296 162 219 163 359 384 357 563 -1 140
-61 294 -144 368 -53 48 -169 142 -216 177 l-32 23 29 81 c38 106 43 128 84
345 19 101 36 185 38 186 10 8 162 37 273 50 71 9 131 18 134 21 15 14 -22 16
-121 5 -140 -15 -280 -44 -612 -127 -142 -35 -263 -64 -270 -64 -7 0 -11 37
-12 118 -1 139 -19 232 -74 378 -62 161 -100 233 -159 296 -29 32 -52 60 -50
63 6 5 204 33 284 39 102 8 535 44 790 65 121 11 284 18 362 17 l142 -1 38
-37 c53 -51 165 -115 247 -140 123 -37 303 -14 412 54 35 22 53 25 189 31 172
8 345 27 560 62 83 13 175 27 205 30 30 4 129 21 220 39 91 18 166 32 167 31
2 -1 -2 -17 -8 -36z m-3512 -315 c31 -54 118 -276 137 -349 13 -51 38 -227 33
-232 -6 -5 -288 -66 -367 -79 -87 -14 -121 -26 -109 -39 3 -2 43 2 88 11 l84
16 146 -98 c162 -109 330 -232 496 -364 61 -48 143 -109 184 -135 94 -60 231
-195 265 -262 32 -63 50 -175 44 -268 -4 -58 -14 -88 -56 -176 -72 -150 -181
-263 -377 -390 -120 -78 -224 -112 -337 -111 -254 4 -452 157 -384 299 18 38
28 37 45 -4 15 -34 70 -77 179 -138 88 -50 139 -57 59 -9 -204 123 -237 156
-237 240 0 36 29 100 30 66 0 -24 104 -124 155 -149 67 -34 155 -64 167 -57
15 9 -2 20 -62 39 -112 36 -220 117 -236 179 -10 43 44 117 86 115 8 0 38 -28
65 -62 49 -60 152 -140 167 -131 16 10 7 22 -22 34 -33 13 -145 123 -166 162
-23 41 -17 69 25 108 62 59 186 89 242 60 21 -12 26 -30 7 -30 -6 0 -26 -11
-44 -25 -28 -21 -34 -23 -44 -10 -14 17 -60 20 -60 5 0 -9 14 -14 33 -11 8 1
9 -8 7 -71 -2 -57 15 -64 24 -10 9 52 67 95 172 128 124 39 198 33 287 -23 37
-23 69 -38 72 -34 13 22 -120 97 -190 107 -41 6 -86 31 -265 149 -118 78 -291
188 -385 245 -391 238 -568 368 -674 492 -162 190 -188 260 -132 353 74 126
236 262 421 355 160 81 358 153 395 146 6 -2 20 -20 32 -42z m6842 -14 c230
-25 223 -24 265 -60 63 -55 65 -115 5 -145 -29 -16 -32 -16 -53 4 -50 47 -163
69 -372 73 l-152 2 1 73 1 73 60 0 c33 0 143 -9 245 -20z m109 -179 c105 -33
130 -59 102 -111 -11 -21 -109 -80 -132 -80 -8 0 -23 9 -32 19 -33 37 -103 53
-249 58 -104 4 -137 9 -133 18 2 7 8 34 11 61 4 27 10 53 13 58 3 5 81 6 181
3 134 -5 191 -11 239 -26z m-6193 -433 c-40 -245 -120 -558 -142 -558 -3 0
-62 44 -132 98 -177 138 -295 225 -448 329 l-132 90 75 17 75 16 29 -34 c51
-58 71 -61 201 -31 63 14 191 45 284 69 94 25 176 45 183 45 11 1 12 -9 7 -41z
m434 -2259 c135 -17 134 -17 128 -42 -2 -12 -23 -87 -46 -167 -23 -80 -57
-215 -76 -300 -29 -128 -108 -393 -121 -409 -2 -2 -43 14 -91 37 -110 51 -234
95 -383 134 -96 25 -138 30 -250 33 -123 2 -288 -13 -332 -30 -11 -4 -18 -3
-18 4 0 6 25 79 56 163 31 84 76 207 100 272 24 66 48 122 52 125 4 3 28 48
52 99 l43 92 401 0 c232 0 436 -5 485 -11z m501 -29 c160 -12 345 -35 450 -55
41 -7 122 -21 180 -30 58 -9 130 -23 160 -31 l55 -15 37 -88 c20 -49 39 -99
42 -112 10 -51 55 -210 96 -337 24 -72 40 -135 37 -138 -3 -4 -65 -1 -137 6
-145 14 -524 8 -625 -10 -70 -13 -175 -45 -225 -70 -82 -41 -73 -54 -125 167
-26 109 -55 230 -66 268 -10 39 -21 84 -23 100 -14 75 -65 303 -75 328 -6 16
-11 30 -11 31 0 3 24 2 230 -14z m-1165 -725 c62 -13 324 -91 333 -100 3 -3
-65 -229 -128 -420 -27 -82 -96 -307 -155 -500 -58 -192 -126 -411 -150 -485
-25 -74 -101 -319 -169 -543 -69 -225 -127 -412 -131 -415 -3 -3 -134 37 -291
88 -259 86 -285 97 -281 115 7 32 185 650 217 755 16 52 66 239 111 415 44
176 97 374 116 440 20 66 60 205 89 309 29 104 56 191 61 195 5 3 26 41 46 84
l38 77 110 0 c60 0 143 -7 184 -15z m2091 -137 c7 -20 21 -49 32 -65 30 -43
102 -272 308 -983 42 -146 87 -316 100 -378 22 -110 69 -289 99 -382 84 -266
116 -373 112 -383 -2 -7 -51 -27 -108 -46 -57 -18 -187 -64 -289 -102 -101
-38 -189 -69 -196 -69 -6 0 -17 21 -23 48 -7 26 -39 121 -71 212 -31 91 -92
275 -134 410 -168 537 -250 793 -308 960 -33 96 -76 225 -95 285 -19 61 -61
195 -94 299 -34 105 -57 192 -52 197 25 25 175 37 437 36 l269 -2 13 -37z
m-2779 -2264 c150 -49 273 -93 273 -98 0 -9 -206 -693 -246 -818 -15 -47 -17
-48 -81 -68 -70 -22 -243 -37 -288 -26 -26 7 -27 9 -22 50 4 27 2 49 -6 60 -7
9 -48 31 -92 50 -50 21 -79 39 -78 47 7 38 87 371 119 494 30 111 85 295 119
393 3 8 11 12 18 9 6 -2 135 -44 284 -93z m3487 -99 c21 -74 81 -275 135 -447
l97 -313 -55 -21 c-77 -29 -115 -47 -123 -59 -4 -5 -8 -31 -8 -56 0 -55 -6
-59 -88 -59 -107 0 -258 34 -288 64 -5 6 -36 76 -67 156 -93 239 -236 616
-242 641 -5 23 2 27 146 79 276 100 414 147 435 149 18 1 25 -15 58 -134z
m-4008 -753 c131 -54 129 -52 129 -102 l0 -45 -43 3 c-30 3 -52 -3 -77 -18
-19 -12 -35 -25 -35 -28 0 -4 -4 -13 -9 -20 -7 -11 -16 -10 -49 7 -23 12 -53
21 -67 21 -30 0 -31 7 -6 34 11 12 28 52 40 89 23 76 28 87 41 87 4 0 39 -13
76 -28z m4312 -49 c6 -16 17 -48 23 -73 7 -25 21 -56 31 -69 25 -32 23 -41 -9
-41 -16 0 -47 -9 -70 -19 l-41 -19 -11 26 c-14 34 -77 65 -122 60 l-33 -3 3
45 c1 25 4 46 5 48 10 10 175 72 192 72 14 0 25 -9 32 -27z m-3760 -105 c11
-15 4 -67 -26 -178 -47 -178 -57 -265 -56 -494 2 -246 4 -240 -76 -281 -101
-51 -316 -95 -473 -95 -93 0 -265 -26 -338 -50 -35 -12 -107 -46 -160 -76
-109 -61 -173 -80 -305 -89 -132 -9 -136 -7 -160 74 -21 70 -17 113 14 143 14
13 17 10 47 -46 17 -32 40 -41 69 -28 35 15 33 42 -6 97 -17 24 -30 46 -27 48
41 29 92 57 104 57 25 0 58 -20 82 -49 21 -25 23 -25 50 -11 40 22 41 55 3 94
l-31 33 58 37 c54 35 60 37 94 27 20 -6 40 -18 43 -26 7 -18 57 -20 74 -3 7 7
12 24 12 40 0 22 -8 31 -36 46 l-36 18 64 55 c63 55 63 55 108 46 25 -5 49
-13 55 -18 17 -17 64 -10 75 12 18 32 5 63 -32 77 -64 24 -64 24 -7 95 l54 65
12 -93 c13 -103 40 -177 71 -194 85 -45 172 45 172 178 0 24 2 42 5 40 2 -3
20 -63 40 -135 25 -91 41 -133 55 -143 11 -7 20 -22 20 -32 0 -11 5 -19 10
-19 15 0 12 45 -10 174 -22 132 -62 294 -85 349 -19 46 -19 47 4 47 11 0 27 7
35 16 21 20 21 73 0 81 -22 8 -65 -14 -71 -38 -5 -17 -9 -14 -36 21 -26 36
-28 45 -18 66 16 36 66 54 121 44 76 -15 248 -10 335 10 44 10 83 18 86 19 4
0 11 -5 17 -11z m3188 -40 c56 -18 93 -22 199 -22 72 -1 151 1 177 4 51 5 82
-13 100 -59 7 -20 4 -30 -24 -58 -31 -32 -33 -32 -40 -13 -11 29 -53 47 -73
30 -34 -28 -7 -90 40 -90 l24 0 -21 -46 c-42 -96 -114 -436 -106 -500 4 -26 5
-27 13 -9 4 11 16 27 27 35 11 9 30 59 49 130 39 147 45 156 51 83 13 -137 97
-211 172 -152 37 29 56 79 69 186 l12 91 54 -65 c57 -71 57 -71 -7 -95 -37
-14 -50 -45 -32 -77 12 -23 58 -29 76 -11 6 6 33 13 60 16 49 5 49 5 103 -50
l54 -54 -30 -16 c-17 -8 -33 -21 -35 -28 -8 -23 7 -61 27 -68 22 -8 65 4 65
19 0 5 16 12 36 16 31 5 44 1 91 -30 l55 -37 -25 -26 c-37 -40 -42 -67 -18
-91 27 -27 35 -27 71 9 44 43 71 47 124 16 25 -14 47 -30 51 -35 3 -5 -11 -30
-30 -55 -40 -52 -41 -58 -19 -80 30 -30 62 -20 92 30 31 49 40 47 61 -15 9
-29 8 -43 -10 -93 -12 -32 -19 -61 -16 -64 11 -11 25 6 32 39 12 53 29 78 120
174 142 150 208 178 314 132 54 -23 90 -64 98 -113 4 -29 0 -37 -43 -75 -70
-61 -191 -116 -314 -143 -85 -18 -136 -22 -270 -22 -201 1 -246 11 -374 88
-158 94 -229 114 -504 141 -285 28 -431 64 -504 125 l-33 28 0 228 c0 240 -10
330 -58 504 -26 99 -32 157 -17 175 15 18 5 19 86 -7z m-3900 -55 c-4 -27 -12
-76 -18 -110 -10 -62 -11 -63 -42 -63 -28 0 -35 5 -49 39 l-18 39 46 65 c64
92 91 102 81 30z m104 -5 c0 -5 -9 -3 -20 4 -11 7 -20 16 -20 20 0 5 9 3 20
-4 11 -7 20 -16 20 -20z m-217 -29 c-10 -17 -28 -39 -40 -49 -13 -10 -23 -22
-23 -27 0 -6 -9 -18 -20 -28 -11 -10 -20 -14 -20 -8 0 11 51 85 83 121 30 32
41 27 20 -9z m4665 22 c7 -4 32 -36 56 -71 l42 -64 -20 -38 c-17 -31 -26 -38
-52 -38 -31 0 -31 1 -43 69 -13 80 -15 151 -3 151 4 0 13 -4 20 -9z m-4493
-42 c4 -17 1 -30 -9 -38 -14 -12 -16 -8 -16 35 0 50 13 52 25 3z m136 -65 c33
-70 80 -242 104 -378 25 -148 17 -146 -24 5 -27 102 -99 306 -140 402 -44 101
10 74 60 -29z m4255 81 c-11 -8 -24 -15 -30 -15 -5 0 -1 7 10 15 10 8 24 14
29 14 6 0 1 -6 -9 -14z m-4176 -19 c0 -24 -26 -38 -40 -22 -6 9 -9 20 -5 26 9
15 45 12 45 -4z m4419 -67 c40 -60 57 -105 23 -62 -47 59 -69 88 -86 116 l-20
30 21 -12 c12 -6 40 -38 62 -72z m-209 24 c0 -42 -2 -46 -15 -32 -12 12 -13
20 -3 47 7 18 14 32 15 32 2 0 3 -21 3 -47z m-77 21 c3 -3 -6 -28 -20 -56 -35
-70 -109 -272 -148 -408 -41 -139 -44 -113 -9 59 41 200 79 309 131 379 24 32
34 38 46 26z m-118 -29 c0 -28 -29 -25 -33 3 -3 19 0 23 15 20 10 -2 18 -12
18 -23z m-4205 -20 c5 -14 13 -37 16 -52 6 -24 5 -25 -27 -18 -51 11 -55 20
-28 60 13 19 25 35 27 35 1 0 7 -11 12 -25z m-207 -34 c9 -21 19 -62 23 -90 5
-42 3 -55 -11 -71 -26 -28 -35 -25 -35 13 -1 17 -7 61 -15 97 -9 45 -10 68 -3
77 17 21 25 15 41 -26z m147 -274 c14 -79 35 -99 75 -73 37 25 59 111 50 202
-4 46 -3 74 3 74 14 0 19 -31 21 -137 3 -98 -10 -141 -53 -175 -76 -62 -136
42 -136 233 0 52 4 112 8 134 5 32 8 16 13 -75 3 -63 12 -145 19 -183z m4470
216 c0 -15 -7 -19 -49 -28 -32 -7 -33 -6 -27 18 3 15 11 39 17 54 l11 28 24
-30 c13 -16 24 -35 24 -42z m189 34 c8 -10 7 -32 -4 -83 -8 -38 -15 -85 -15
-104 l-1 -35 -25 29 c-23 26 -25 35 -20 79 8 54 34 127 46 127 4 0 13 -6 19
-13z m-151 -192 c-3 -95 -9 -130 -26 -167 -27 -62 -61 -80 -100 -52 -49 37
-63 78 -61 184 2 113 5 130 26 130 10 0 13 -5 8 -17 -14 -37 -17 -123 -6 -171
15 -62 43 -94 79 -90 25 3 28 8 45 93 9 50 18 135 18 190 1 86 2 95 11 60 5
-22 8 -94 6 -160z m-4570 176 c8 -5 12 -17 10 -27 -4 -23 -48 -33 -48 -11 0 9
-3 22 -6 31 -7 18 21 22 44 7z m-148 -15 c0 -8 3 -21 6 -30 5 -13 -2 -16 -44
-16 -55 0 -73 18 -46 45 20 20 84 20 84 1z m278 -16 c20 0 36 -25 26 -41 -7
-12 -41 -11 -49 1 -3 6 -15 10 -26 10 -12 0 -19 7 -19 18 0 26 10 33 31 22 10
-6 26 -10 37 -10z m4511 -22 c-1 -24 -14 -43 -32 -46 -19 -3 -32 20 -23 43 7
18 56 20 55 3z m192 -19 c16 -25 3 -34 -51 -37 -45 -3 -52 -1 -46 13 3 9 6 23
6 31 0 19 78 13 91 -7z m-301 -12 c0 -17 -9 -25 -42 -35 -32 -10 -43 -10 -49
-1 -12 20 1 39 26 39 13 0 27 5 30 10 12 19 35 10 35 -13z m-4672 -10 c16 -11
16 -92 -1 -106 -8 -6 -16 -9 -19 -6 -3 3 -31 9 -63 13 -56 7 -59 9 -67 41 -13
50 7 67 79 66 32 0 64 -4 71 -8z m269 -9 c32 -12 33 -14 33 -68 0 -59 -27
-120 -54 -120 -19 0 -36 52 -43 133 -7 75 -2 79 64 55z m-443 -51 c3 -18 5
-74 5 -125 0 -69 -3 -92 -12 -89 -7 2 -12 23 -13 49 0 25 -4 49 -7 54 -9 16
-20 131 -13 143 12 18 34 0 40 -32z m4843 -51 c-5 -76 -29 -140 -50 -134 -23
8 -47 72 -47 129 l0 55 43 11 c23 5 46 11 51 12 5 0 6 -32 3 -73z m356 1 c-5
-35 -8 -37 -42 -37 -20 0 -50 -4 -68 -9 -42 -12 -55 4 -51 61 l3 43 65 5 c82
7 102 -7 93 -63z m63 -39 c-3 -33 -9 -65 -13 -71 -4 -7 -6 -20 -4 -31 4 -29
-9 -86 -21 -86 -17 0 -7 239 12 250 25 16 33 -1 26 -62z m-5322 16 c11 -30 6
-34 -44 -34 -55 0 -62 9 -27 33 29 21 63 21 71 1z m194 -5 c2 -5 15 -9 28 -9
34 0 104 -37 104 -55 0 -20 -6 -19 -132 12 -101 25 -108 28 -108 51 0 24 2 24
53 18 28 -4 54 -11 55 -17z m5059 -45 c9 -25 -12 -38 -95 -56 -139 -32 -142
-32 -142 -15 0 20 69 57 105 57 14 0 25 4 25 9 0 9 28 16 78 20 12 0 25 -6 29
-15z m-5392 -71 c-9 -103 -20 -162 -33 -175 -11 -11 -16 209 -6 237 4 8 15 15
26 15 19 0 20 -4 13 -77z m103 57 c45 0 52 -10 52 -71 0 -35 -3 -40 -19 -34
-10 3 -38 11 -62 18 -43 13 -44 13 -47 61 -3 45 -2 47 17 37 11 -6 37 -11 59
-11z m5447 4 c14 -9 22 -20 19 -25 -7 -12 -94 -12 -94 0 0 42 33 52 75 25z
m-5275 -7 c0 -2 -11 -14 -25 -27 l-25 -23 0 26 c0 22 5 27 25 27 14 0 25 -1
25 -3z m5317 -124 c-3 -2 -32 -13 -66 -23 l-61 -18 0 43 c0 64 6 74 43 68 18
-2 43 0 57 5 24 9 25 8 28 -30 2 -22 1 -42 -1 -45z m67 70 c8 -27 3 -243 -5
-243 -11 0 -16 23 -28 113 -16 119 -15 147 8 147 11 0 22 -8 25 -17z m-271
-15 c4 -12 4 -24 2 -27 -8 -7 -45 31 -39 40 10 17 32 9 37 -13z m-5455 -26 c3
-19 0 -23 -15 -18 -10 3 -36 8 -57 12 -37 6 -38 8 -20 21 10 8 35 13 54 11 28
-2 36 -8 38 -26z m-154 9 c9 -14 19 -209 12 -236 -10 -41 -26 -28 -26 23 -1
26 -7 83 -15 126 -8 44 -12 83 -9 88 7 11 31 10 38 -1z m341 -36 c90 -26 121
-45 111 -70 -7 -19 -21 -19 -40 0 -8 8 -23 15 -33 15 -22 0 -130 33 -139 43
-7 6 2 37 11 37 2 0 43 -11 90 -25z m-222 -11 c34 -6 37 -9 37 -39 0 -63 -6
-66 -63 -39 -45 20 -53 28 -58 59 -6 34 -5 36 20 31 14 -3 43 -8 64 -12z
m5882 -8 c17 -12 15 -14 -21 -20 -21 -4 -47 -9 -56 -12 -13 -4 -18 0 -18 14 0
10 3 22 7 25 11 12 68 8 88 -7z m-6055 -5 c0 -14 -18 -23 -30 -16 -6 4 -8 11
-5 16 8 12 35 12 35 0z m6151 -46 c-4 -17 -14 -74 -21 -127 -19 -136 -34 -114
-28 39 4 92 9 127 19 134 23 14 40 -12 30 -46z m-278 21 c8 -19 -9 -31 -63
-45 -46 -12 -87 -24 -127 -36 -19 -6 -23 -3 -23 13 0 20 50 51 87 53 10 0 34
7 53 14 46 18 67 18 73 1z m-5915 -11 c44 -14 52 -19 52 -40 0 -30 -1 -30 -70
-5 -30 12 -62 23 -70 26 -14 5 -6 12 36 34 0 0 24 -7 52 -15z m365 8 c4 -3 -2
-13 -14 -21 -23 -16 -34 -10 -26 13 7 15 28 20 40 8z m5759 -38 c-4 -30 -10
-38 -40 -51 -78 -32 -82 -31 -82 19 l0 45 53 10 c28 5 57 10 62 11 7 1 9 -13
7 -34z m128 -10 c0 -3 -9 -5 -20 -5 -11 0 -20 7 -20 15 0 13 4 14 20 5 11 -6
20 -13 20 -15z m-6333 -33 c82 -66 198 -204 189 -227 -10 -26 -24 -17 -79 53
-57 71 -134 147 -180 176 -15 10 -27 22 -27 27 0 22 52 6 97 -29z m357 -32
c43 -29 62 -55 47 -64 -11 -7 -51 5 -51 15 0 5 -7 9 -15 9 -8 0 -23 8 -33 18
-10 10 -33 22 -52 28 -32 9 -45 31 -33 56 5 10 86 -26 137 -62z m5650 44 c4
-9 5 -19 2 -21 -6 -6 -46 20 -46 29 0 15 38 8 44 -8z m-6079 -39 c35 -24 81
-65 104 -91 l40 -46 -22 -39 -22 -40 -25 33 c-54 72 -145 159 -183 175 l-39
18 38 17 c22 10 41 18 43 18 2 0 32 -20 66 -45z m6482 32 c20 -11 16 -14 -53
-39 l-74 -26 0 28 c0 24 5 29 38 38 50 13 63 13 89 -1z m-6309 -17 c36 -16 42
-23 42 -50 0 -16 -3 -30 -7 -30 -4 0 -28 23 -53 50 -50 54 -47 60 18 30z
m6092 -39 c0 -25 -5 -31 -31 -36 -17 -4 -50 -20 -73 -35 -58 -39 -86 -43 -86
-10 0 16 150 105 188 110 1 0 2 -13 2 -29z m-6390 -11 c26 -17 76 -63 110
-103 35 -39 71 -79 80 -87 24 -22 41 -56 56 -113 l12 -48 -46 6 c-105 15 -263
55 -313 80 -58 30 -143 91 -173 123 -23 26 -16 58 21 103 62 73 173 90 253 39z
m6710 25 c0 -2 -20 -18 -44 -34 -59 -41 -181 -162 -201 -200 -9 -19 -23 -31
-35 -31 -28 0 -25 31 5 60 14 13 25 27 25 32 0 10 133 136 169 160 23 16 81
25 81 13z m-6280 -15 c0 -5 -4 -10 -10 -10 -5 0 -10 5 -10 10 0 6 5 10 10 10
6 0 10 -4 10 -10z m6104 -43 c-60 -68 -70 -71 -66 -27 4 34 7 38 50 53 26 8
49 16 51 16 2 1 -14 -18 -35 -42z m264 19 c23 -12 23 -13 -18 -31 -25 -11 -76
-55 -129 -111 l-86 -91 -18 40 -17 41 37 39 c21 22 67 61 103 88 67 50 76 52
128 25z m-5008 -42 c0 -40 -20 -99 -44 -128 -34 -42 -344 -140 -480 -151 -106
-9 -299 -36 -364 -51 -35 -8 -109 -34 -165 -58 -176 -74 -331 -101 -506 -85
-240 21 -410 90 -535 217 l-49 50 7 56 c6 46 11 56 26 56 10 0 22 -5 25 -10
13 -21 118 -92 183 -125 170 -85 539 -121 712 -69 30 9 87 35 125 59 142 86
269 119 495 130 223 11 438 57 513 110 43 31 57 30 57 -1z m4600 0 c0 -8 -4
-12 -10 -9 -5 3 -10 10 -10 16 0 5 5 9 10 9 6 0 10 -7 10 -16z m-1330 -29 c89
-65 235 -99 560 -131 225 -21 311 -48 465 -145 101 -63 153 -74 365 -74 192 0
263 10 407 56 63 21 162 79 222 131 41 36 50 29 58 -44 l5 -54 -65 -60 c-36
-33 -78 -66 -94 -73 -15 -8 -48 -24 -73 -36 -119 -59 -282 -90 -440 -82 -188
10 -273 30 -432 106 -104 49 -156 62 -398 96 -290 40 -563 126 -601 189 -26
42 -40 95 -33 123 8 29 12 29 54 -2z"/>
<path d="M5075 11441 c-54 -24 -141 -121 -109 -121 4 0 28 22 54 49 58 60 105
76 205 67 63 -5 68 -4 51 9 -29 22 -150 20 -201 -4z"/>
<path d="M5123 11300 c-48 -21 -74 -64 -99 -162 -27 -104 0 -230 77 -364 27
-48 28 -54 12 -54 -25 0 -85 -38 -78 -50 4 -6 22 -2 45 10 54 27 67 25 107
-15 32 -32 35 -39 30 -78 -8 -62 -51 -97 -117 -97 -53 0 -67 -15 -24 -26 34
-9 101 12 129 40 13 13 28 41 34 62 10 34 8 45 -14 87 l-24 48 27 11 c15 6 61
12 102 14 74 3 75 4 77 31 10 160 9 192 -8 274 -44 212 -157 322 -276 269z
m105 -24 c59 -31 113 -111 137 -202 21 -79 31 -270 16 -308 -18 -45 -24 -24
-22 79 2 93 -13 230 -29 254 -5 9 -21 7 -61 -8 -30 -12 -55 -21 -56 -21 -10 0
1 26 23 60 33 50 28 75 -26 124 -41 37 -33 48 18 22z"/>
<path d="M4478 11260 c-67 -20 -122 -71 -162 -148 -19 -36 -12 -60 8 -28 76
128 157 174 286 162 60 -6 63 -5 46 9 -22 16 -130 20 -178 5z"/>
<path d="M4515 11127 c-82 -32 -108 -71 -123 -184 -10 -70 -4 -130 18 -188 17
-45 90 -186 112 -218 l20 -28 -26 -24 c-23 -22 -34 -45 -21 -45 3 0 24 13 46
30 55 39 139 70 213 77 l61 5 -6 162 c-7 159 -8 163 -42 237 -45 93 -85 141
-140 168 -48 23 -68 25 -112 8z m135 -37 c18 -10 83 -107 110 -165 18 -39 27
-332 11 -348 -8 -8 -11 6 -11 54 -1 87 -17 204 -36 262 -15 44 -18 48 -41 42
-14 -3 -39 -9 -57 -12 l-31 -6 18 24 c9 13 26 40 37 60 l19 36 -24 23 c-36 34
-33 51 5 30z"/>
<path d="M3740 10930 c0 -5 5 -10 10 -10 6 0 10 5 10 10 0 6 -4 10 -10 10 -5
0 -10 -4 -10 -10z"/>
<path d="M3685 10909 c-10 -15 3 -25 16 -12 7 7 7 13 1 17 -6 3 -14 1 -17 -5z"/>
<path d="M3640 10900 c0 -5 5 -10 10 -10 6 0 10 5 10 10 0 6 -4 10 -10 10 -5
0 -10 -4 -10 -10z"/>
<path d="M3592 10891 c4 -13 18 -16 19 -4 0 4 -5 9 -11 12 -7 2 -11 -2 -8 -8z"/>
<path d="M3543 10876 c-26 -12 -30 -26 -8 -26 8 0 15 4 15 9 0 5 8 11 18 13 9
2 13 6 7 9 -5 3 -20 1 -32 -5z"/>
<path d="M3720 10875 c0 -8 5 -15 10 -15 6 0 10 7 10 15 0 8 -4 15 -10 15 -5
0 -10 -7 -10 -15z"/>
<path d="M3640 10860 c0 -5 5 -10 10 -10 6 0 10 5 10 10 0 6 -4 10 -10 10 -5
0 -10 -4 -10 -10z"/>
<path d="M3606 10851 c-4 -7 -5 -15 -2 -18 9 -9 19 4 14 18 -4 11 -6 11 -12 0z"/>
<path d="M3680 10850 c0 -5 5 -10 10 -10 6 0 10 5 10 10 0 6 -4 10 -10 10 -5
0 -10 -4 -10 -10z"/>
<path d="M3565 10830 c-3 -5 -1 -10 4 -10 6 0 11 5 11 10 0 6 -2 10 -4 10 -3
0 -8 -4 -11 -10z"/>
<path d="M3630 10810 c0 -5 5 -10 10 -10 6 0 10 5 10 10 0 6 -4 10 -10 10 -5
0 -10 -4 -10 -10z"/>
<path d="M3720 10810 c0 -5 5 -10 10 -10 6 0 10 5 10 10 0 6 -4 10 -10 10 -5
0 -10 -4 -10 -10z"/>
<path d="M3595 10800 c-3 -5 -1 -10 4 -10 6 0 11 5 11 10 0 6 -2 10 -4 10 -3
0 -8 -4 -11 -10z"/>
<path d="M3555 10790 c4 -6 11 -8 16 -5 14 9 11 15 -7 15 -8 0 -12 -5 -9 -10z"/>
<path d="M3645 10770 c3 -5 8 -10 11 -10 2 0 4 5 4 10 0 6 -5 10 -11 10 -5 0
-7 -4 -4 -10z"/>
<path d="M3725 10771 c-3 -5 -1 -12 5 -16 5 -3 10 1 10 9 0 18 -6 21 -15 7z"/>
<path d="M3580 10750 c0 -5 7 -10 15 -10 8 0 15 5 15 10 0 6 -7 10 -15 10 -8
0 -15 -4 -15 -10z"/>
<path d="M3530 10724 c0 -8 5 -12 10 -9 6 4 8 11 5 16 -9 14 -15 11 -15 -7z"/>
<path d="M3620 10730 c0 -5 5 -10 10 -10 6 0 10 5 10 10 0 6 -4 10 -10 10 -5
0 -10 -4 -10 -10z"/>
<path d="M3660 10725 c0 -8 5 -15 10 -15 6 0 10 7 10 15 0 8 -4 15 -10 15 -5
0 -10 -7 -10 -15z"/>
<path d="M3730 10710 c0 -5 5 -10 10 -10 6 0 10 5 10 10 0 6 -4 10 -10 10 -5
0 -10 -4 -10 -10z"/>
<path d="M3570 10700 c0 -5 5 -10 10 -10 6 0 10 5 10 10 0 6 -4 10 -10 10 -5
0 -10 -4 -10 -10z"/>
<path d="M3676 10662 c-3 -6 -1 -14 5 -17 15 -10 25 3 12 16 -7 7 -13 7 -17 1z"/>
<path d="M3560 10649 c0 -5 5 -7 10 -4 6 3 10 8 10 11 0 2 -4 4 -10 4 -5 0
-10 -5 -10 -11z"/>
<path d="M3720 10630 c0 -5 4 -10 9 -10 6 0 13 5 16 10 3 6 -1 10 -9 10 -9 0
-16 -4 -16 -10z"/>
<path d="M3583 10520 c-17 -10 -37 -28 -42 -39 -14 -25 -14 -96 -1 -121 13
-24 92 -54 119 -45 33 10 25 25 -14 25 -47 0 -58 25 -23 55 19 16 34 21 55 17
25 -5 27 -4 14 11 -27 33 -93 8 -114 -44 -5 -12 -7 -12 -16 1 -22 31 -8 90 28
117 9 6 33 15 54 18 20 4 35 11 31 16 -9 15 -57 10 -91 -11z"/>
<path d="M5280 10422 c0 -10 83 -92 93 -92 16 0 5 20 -33 59 -38 39 -60 51
-60 33z"/>
<path d="M5590 10419 c0 -19 57 -75 67 -65 4 3 -10 23 -30 44 -24 24 -37 31
-37 21z"/>
<path d="M5412 10410 c7 -22 113 -121 116 -110 3 7 -20 36 -49 66 -50 50 -75
67 -67 44z"/>
<path d="M5376 10402 c-6 -10 63 -112 75 -112 17 0 9 20 -27 70 -38 53 -40 55
-48 42z"/>
<path d="M5200 10391 c0 -10 104 -121 113 -121 18 0 2 26 -44 76 -49 51 -69
64 -69 45z"/>
<path d="M5510 10378 c0 -23 53 -82 69 -77 8 3 -2 21 -28 49 -28 32 -40 40
-41 28z"/>
<path d="M5560 10377 c0 -19 66 -80 81 -75 8 3 -1 19 -25 46 -39 43 -56 52
-56 29z"/>
<path d="M4932 10358 c-15 -36 -19 -96 -7 -100 11 -3 27 76 22 107 -3 18 -5
17 -15 -7z"/>
<path d="M5300 10345 c19 -20 36 -31 38 -25 5 15 -38 60 -57 60 -10 0 -3 -12
19 -35z"/>
<path d="M4871 10328 c-15 -41 -23 -106 -13 -112 13 -8 19 9 27 77 8 59 1 74
-14 35z"/>
<path d="M5066 10342 c-2 -4 -8 -36 -12 -70 -8 -71 10 -89 21 -19 3 23 8 54
11 70 5 25 -8 38 -20 19z"/>
<path d="M4973 10325 c-15 -26 -20 -83 -9 -87 12 -4 28 56 24 86 -3 21 -4 21
-15 1z"/>
<path d="M5016 10308 c-14 -45 -24 -103 -20 -110 10 -15 22 1 29 39 3 21 9 48
12 61 5 23 -15 32 -21 10z"/>
<path d="M4776 10278 c-11 -33 -13 -99 -4 -104 13 -9 15 -5 22 59 5 39 4 57
-4 57 -6 0 -12 -6 -14 -12z"/>
<path d="M5354 10267 c-3 -8 2 -32 11 -53 16 -38 15 -39 -7 -58 -38 -30 -110
-63 -166 -75 -92 -19 -213 -23 -267 -8 l-50 13 -3 52 c-4 64 -22 69 -22 6 0
-50 -28 -107 -61 -124 -22 -12 -25 -30 -5 -30 8 0 28 16 46 36 l32 36 59 -12
c130 -28 334 5 429 69 l44 29 37 -29 c20 -16 42 -29 48 -29 19 0 12 17 -14 34
-35 23 -85 94 -85 122 0 27 -18 41 -26 21z"/>
<path d="M4816 10259 c-14 -45 -15 -79 -2 -79 8 0 16 15 19 38 4 37 -8 69 -17
41z"/>
<path d="M4676 10194 c-9 -24 -7 -94 3 -94 11 0 21 36 21 78 0 34 -14 43 -24
16z"/>
<path d="M4727 10203 c-10 -10 -8 -113 2 -113 10 0 21 48 21 91 0 28 -9 36
-23 22z"/>
<path d="M4636 10184 c-9 -24 -7 -114 3 -114 9 0 21 57 21 103 0 29 -14 36
-24 11z"/>
<path d="M4575 10069 c-7 -62 -4 -76 14 -64 13 8 15 125 2 125 -5 0 -12 -27
-16 -61z"/>
<path d="M4630 9903 c0 -5 -7 -55 -15 -112 -15 -101 -14 -125 4 -105 8 9 31
157 31 202 0 19 -20 34 -20 15z"/>
<path d="M5446 9884 c-16 -53 -46 -207 -41 -212 11 -12 22 16 44 112 14 63 18
103 12 109 -6 6 -11 2 -15 -9z"/>
<path d="M4546 9758 c-12 -57 -17 -178 -8 -178 12 0 19 30 27 128 5 49 4 72
-4 72 -6 0 -13 -10 -15 -22z"/>
<path d="M5240 9718 c-6 -24 -15 -59 -21 -78 -12 -49 -12 -77 2 -63 10 10 48
144 49 171 0 29 -20 9 -30 -30z"/>
<path d="M4817 9648 c-14 -57 -24 -105 -21 -107 10 -11 24 19 43 96 23 89 26
113 12 113 -5 0 -20 -46 -34 -102z"/>
<path d="M4747 9723 c-4 -7 -18 -54 -53 -175 -8 -26 15 -22 25 5 23 61 48 167
41 172 -5 3 -11 2 -13 -2z"/>
<path d="M4631 9641 c-13 -84 -14 -101 -2 -101 9 0 31 98 31 142 0 53 -17 28
-29 -41z"/>
<path d="M5070 9650 c-7 -33 -10 -63 -7 -66 9 -10 27 33 33 81 10 67 -11 56
-26 -15z"/>
<path d="M5005 9678 c-3 -13 -16 -72 -30 -132 -24 -101 -26 -140 -5 -106 7 12
40 142 56 228 7 37 -12 46 -21 10z"/>
<path d="M4865 9589 c-15 -44 -24 -83 -21 -86 9 -10 12 -4 45 85 22 60 26 82
16 82 -8 0 -24 -33 -40 -81z"/>
<path d="M8613 8803 c-51 -10 -17 -20 80 -26 136 -7 187 -26 257 -96 30 -31
69 -74 86 -95 19 -25 33 -36 37 -29 8 13 -65 110 -116 156 -47 42 -98 65 -177
82 -69 15 -121 17 -167 8z"/>
<path d="M3400 7240 c0 -5 5 -10 10 -10 6 0 10 5 10 10 0 6 -4 10 -10 10 -5 0
-10 -4 -10 -10z"/>
<path d="M2596 3609 c-57 -45 -75 -135 -35 -178 28 -30 88 -56 101 -43 6 6 -9
18 -39 33 -62 31 -74 61 -48 120 11 22 29 48 42 56 23 15 31 33 14 33 -4 0
-20 -9 -35 -21z"/>
<path d="M5700 3531 c0 -6 4 -11 9 -11 14 0 41 -77 41 -116 0 -71 -55 -124
-129 -124 -17 0 -31 -4 -31 -10 0 -5 20 -10 44 -10 49 0 103 31 123 70 19 37
16 129 -5 170 -16 33 -52 54 -52 31z"/>
<path d="M8260 10490 c0 -5 5 -10 10 -10 6 0 10 5 10 10 0 6 -4 10 -10 10 -5
0 -10 -4 -10 -10z"/>
</g>
</svg>
