<svg xmlns="http://www.w3.org/2000/svg" xmlns:xlink="http://www.w3.org/1999/xlink" version="1.1" id="Calque_1" x="0px" y="0px" viewBox="0 0 245.2 100.8" style="enable-background:new 0 0 245.2 100.8;" xml:space="preserve">
<style type="text/css">
	.st0{fill:#EE5024;}
</style>
<path class="st0" d="M0,100.8V56.1h6.8L6.8,99.6C4.5,100,2.3,100.4,0,100.8z"/>
<path class="st0" d="M10.9,98.8L11,56.1h5.3c3.1,8.4,6.3,16.4,9.4,24.2c-0.1-3.7-0.3-7.3-0.4-11l0.1-13.2h6.1  c-0.1,13.2-0.1,26.3-0.2,39.5l-4.8,0.7c-3.2-7.8-6.4-16-9.6-24.4c0.1,3.6,0.2,7.3,0.4,10.9c0,5,0,10,0,14.9  C15.1,98.1,13,98.4,10.9,98.8z"/>
<path class="st0" d="M37.7,94.8c0.1-11.2,0.1-22.4,0.2-33.5l-5.2,0.1v-5.2h17V61l-5,0.1l-0.2,32.8C42.2,94.2,40,94.5,37.7,94.8z"/>
<path class="st0" d="M50.7,93.2l0.2-37.1h15c0,1.6,0,3.1,0,4.7l-8.2,0.1l-0.1,10.6l7.8-0.3c0,1.5,0,3,0,4.6  c-2.6,0.1-5.2,0.3-7.8,0.4l-0.1,11.6c2.8-0.2,5.6-0.5,8.5-0.7c0,1.6,0,3.1,0,4.7C60.9,92.1,55.8,92.6,50.7,93.2z"/>
<path class="st0" d="M68.5,91.5c0.1-11.8,0.1-23.6,0.2-35.3h11.2c1.8-0.1,3.6,0.2,5.2,1c1.1,0.7,1.9,1.7,2.3,3  c0.4,1.6,0.6,3.3,0.5,4.9c0.1,1.6-0.2,3.2-0.8,4.7c-0.7,1.3-1.9,2.1-3.3,2.4c0.7,0.1,1.4,0.3,2,0.7c0.6,0.4,1,1,1.3,1.6  c0.4,0.9,0.6,1.8,0.7,2.8c0.2,1.4,0.2,2.8,0.2,4.2v1.1c0,0.6,0,1.3,0,2.1c0,0.8,0,1.6,0,2.4s0,1.5,0.1,2c0,0.3,0,0.7,0.1,1  c-2.3,0.1-4.6,0.2-6.8,0.4c-0.1-0.3-0.1-0.7-0.1-1c0-0.6,0-1.4-0.1-2.3c0-0.9,0-2,0-3V81c0-1.1,0-2,0-2.8c0-0.8-0.1-1.6-0.3-2.3  c-0.2-0.5-0.6-0.9-1.1-1.1c-0.7-0.2-1.5-0.3-2.2-0.3h-2.2c0,5.5,0,11-0.1,16.4C73,91.1,70.7,91.3,68.5,91.5z M75.5,70.4l2.7-0.1  c0.7,0,1.3-0.1,1.9-0.5c0.5-0.4,0.8-1,0.9-1.6c0.2-1.1,0.3-2.2,0.3-3.3v-0.2c0-0.9,0-1.9-0.2-2.8c-0.1-0.6-0.5-1.1-1-1.3  c-0.7-0.3-1.5-0.4-2.2-0.4h-2.3C75.5,63.6,75.4,67,75.5,70.4L75.5,70.4z"/>
<path class="st0" d="M91.1,90c0-11.3,0.1-22.6,0.1-33.9h5.3c3.1,6.7,6.3,13.4,9.4,20c-0.2-3-0.3-6.1-0.5-9.1V56.1h6.1  c0,11.1,0,22.1,0,33.2l-4.8,0.1c-3.2-6.8-6.5-13.7-9.7-20.6c0.1,2.9,0.2,5.9,0.3,8.8c0,4,0,8,0,12L91.1,90z"/>
<path class="st0" d="M115.7,89.2V56.1h15v4.3h-8.2v9.6h7.8v4.3c-2.6,0-5.2,0-7.8,0v10.5c2.8,0,5.7,0,8.5,0v4.3  C125.9,89.2,120.8,89.2,115.7,89.2z"/>
<path class="st0" d="M135.9,89.3l-0.1-28.8h-5.2v-4.4h17c0,1.5,0,3,0,4.4h-5c0,9.7,0,19.3,0.1,29C140.4,89.4,138.1,89.4,135.9,89.3z  "/>
<path class="st0" d="M148.9,89.8c0-11.2,0-22.4-0.1-33.6h11.2c1.8-0.1,3.6,0.2,5.2,1.1c1.1,0.7,2,1.8,2.3,3.1c0.4,1.6,0.6,3.3,0.6,5  c0.1,1.6-0.2,3.3-0.8,4.8c-0.6,1.2-1.9,2.1-3.3,2.2c0.7,0.1,1.4,0.4,2,0.8c0.6,0.5,1,1.1,1.3,1.7c0.4,0.9,0.6,1.9,0.7,2.9  c0.2,1.4,0.2,2.8,0.2,4.3v1.1c0,0.6,0,1.3,0,2.1s0,1.6,0,2.5s0.1,1.5,0.1,2.1c0,0.3,0.1,0.7,0.1,1c-2.3-0.2-4.6-0.3-6.8-0.4  c-0.1-0.3-0.1-0.7-0.1-1c0-0.6-0.1-1.4-0.1-2.3s-0.1-1.9-0.1-3s0-2.1,0-3.2s0-2,0-2.8c0-0.8-0.1-1.6-0.3-2.3  c-0.2-0.5-0.6-0.9-1.1-1.1c-0.7-0.3-1.5-0.4-2.2-0.4l-2.2-0.1l0.1,16C153.5,89.9,151.2,89.8,148.9,89.8z M155.7,70.1l2.7,0.1  c0.7,0.1,1.3-0.1,1.9-0.4c0.5-0.4,0.8-0.9,0.9-1.6c0.2-1.1,0.3-2.2,0.2-3.3v-0.2c0-0.9-0.1-1.9-0.2-2.8c-0.1-0.6-0.5-1.1-1-1.3  c-0.7-0.3-1.5-0.4-2.2-0.4h-2.3C155.7,63.4,155.7,66.7,155.7,70.1z"/>
<path class="st0" d="M168.9,90.9c2.1-11.4,4.1-23,6.2-34.7h9c2.3,12,4.7,24.2,7,36.7c-2.1-0.2-4.2-0.4-6.4-0.6  c-0.4-2.2-0.7-4.3-1.1-6.5c-2.4-0.2-4.8-0.4-7.2-0.5l-1,6.2C173.3,91.2,171.1,91,168.9,90.9z M177,80.9l5.8,0.4  c-1-6.1-2.1-12.1-3.1-18.1h-0.1C178.8,69.1,177.9,75,177,80.9L177,80.9z"/>
<path class="st0" d="M192.5,93l-0.2-36.8h8.5c2.2,9.2,4.3,18.6,6.5,28.2c1.9-9.2,3.9-18.6,5.8-28.2h8.5l0.1,40.6c-2-0.3-4-0.6-6-0.9  c0-4.9,0-9.9-0.1-14.8c0.1-4.5,0.1-9.1,0.2-13.6c-2,9.3-3.9,18.5-5.9,27.4c-1.8-0.2-3.6-0.5-5.4-0.7c-2.1-9.3-4.3-18.5-6.4-27.4  l0.3,12.8c0,4.7,0,9.3,0.1,14C196.5,93.4,194.5,93.2,192.5,93z"/>
<path class="st0" d="M223.2,97c2.1-13.3,4.2-26.9,6.3-40.9h9c2.3,14.5,4.5,29.4,6.8,44.7c-2.1-0.4-4.2-0.8-6.3-1.2  c-0.4-2.7-0.7-5.3-1.1-7.9c-2.4-0.3-4.8-0.7-7.2-1c-0.3,2.5-0.6,4.9-0.9,7.3C227.6,97.7,225.4,97.3,223.2,97z M231.3,85.6l5.8,0.7  c-1-7.3-2-14.6-3-21.8H234C233.1,71.6,232.2,78.7,231.3,85.6L231.3,85.6z"/>
<path class="st0" d="M122.6,0c-11,0-20,9-20,20l0,0c0,11,9,20,20,20c11,0,20-9,20-20l0,0C142.6,9,133.7,0,122.6,0z M130.6,22h-4l4,8  h-4l-4-8h-4v8h-4v-8h4v-4h-4v-4h4v-4h12V22z M126.6,14h-8v4h8V14z"/>
</svg>